<svg xmlns="http://www.w3.org/2000/svg" viewBox="0 0 680 200" role="img" aria-label="CrewLogicAI — Optimize, Coordinate, Scale">
  <!-- ===== Mark: hexagon + circuit traces + truck ===== -->
  <g fill="none" stroke="#39ED07" stroke-linejoin="round">
    <!-- hexagon ring -->
    <path d="M95 20 L165 60 L165 140 L95 180 L25 140 L25 60 Z" stroke-width="9"/>
    <!-- circuit stubs -->
    <path d="M95 20 V4" stroke-width="4" stroke-linecap="round"/>
    <path d="M165 60 L183 49" stroke-width="4" stroke-linecap="round"/>
    <path d="M25 140 L7 151" stroke-width="4" stroke-linecap="round"/>
    <path d="M165 140 L183 151" stroke-width="4" stroke-linecap="round"/>
  </g>
  <g fill="#39ED07">
    <circle cx="95" cy="4" r="5"/>
    <circle cx="187" cy="47" r="5"/>
    <circle cx="3" cy="153" r="5"/>
    <circle cx="187" cy="153" r="5"/>
  </g>
  <!-- truck (front view) -->
  <g fill="none" stroke="#39ED07" stroke-width="4.5" stroke-linejoin="round">
    <rect x="62" y="66" width="66" height="50" rx="7"/>
    <rect x="71" y="74" width="48" height="20" rx="3"/>
    <rect x="58" y="116" width="74" height="10" rx="3"/>
  </g>
  <g fill="#39ED07">
    <rect x="76" y="100" width="10" height="6" rx="1.5"/>
    <rect x="104" y="100" width="10" height="6" rx="1.5"/>
    <circle cx="79" cy="131" r="7.5"/>
    <circle cx="111" cy="131" r="7.5"/>
  </g>
  <!-- ===== Wordmark ===== -->
  <text x="212" y="106" font-family="'DM Sans','Segoe UI',Arial,sans-serif" font-weight="800" font-size="60" letter-spacing="-1.5">
    <tspan fill="#ffffff">CrewLogic</tspan><tspan fill="#39ED07">AI</tspan>
  </text>
  <text x="214" y="140" font-family="'DM Sans','Segoe UI',Arial,sans-serif" font-weight="700" font-size="18" letter-spacing="3.4" fill="#eaf1f8">OPTIMIZE&#160;&#160;<tspan fill="#39ED07">&#8226;</tspan>&#160;&#160;COORDINATE&#160;&#160;<tspan fill="#39ED07">&#8226;</tspan>&#160;&#160;SCALE</text>
</svg>
